<svg width="40" height="41" viewBox="0 0 40 41" fill="none" xmlns="http://www.w3.org/2000/svg">
<path d="M20 24.0642C21.0609 24.0642 22.0783 23.6428 22.8284 22.8926C23.5786 22.1425 24 21.1251 24 20.0642C24 19.0033 23.5786 17.9859 22.8284 17.2358C22.0783 16.4856 21.0609 16.0642 20 16.0642C18.9391 16.0642 17.9217 16.4856 17.1716 17.2358C16.4214 17.9859 16 19.0033 16 20.0642C16 21.1251 16.4214 22.1425 17.1716 22.8926C17.9217 23.6428 18.9391 24.0642 20 24.0642Z" stroke="white" stroke-width="1.5" stroke-linecap="round" stroke-linejoin="round"/>
<path d="M11 24.0642V16.0642C11 14.7381 11.5268 13.4664 12.4645 12.5287C13.4021 11.591 14.6739 11.0642 16 11.0642H24C25.3261 11.0642 26.5979 11.591 27.5355 12.5287C28.4732 13.4664 29 14.7381 29 16.0642V24.0642C29 25.3903 28.4732 26.6621 27.5355 27.5997C26.5979 28.5374 25.3261 29.0642 24 29.0642H16C14.6739 29.0642 13.4021 28.5374 12.4645 27.5997C11.5268 26.6621 11 25.3903 11 24.0642Z" stroke="white" stroke-width="1.5"/>
<path d="M25.5 14.5742L25.51 14.5632" stroke="white" stroke-width="1.5" stroke-linecap="round" stroke-linejoin="round"/>
<circle cx="20" cy="20.0642" r="19.5" stroke="white"/>
</svg>
