<svg width="40" height="41" viewBox="0 0 40 41" fill="none" xmlns="http://www.w3.org/2000/svg">
<path d="M14.9399 13.0642C14.9397 13.5947 14.7287 14.1033 14.3534 14.4782C13.9782 14.853 13.4694 15.0635 12.9389 15.0632C12.4085 15.063 11.8999 14.852 11.525 14.4767C11.1501 14.1015 10.9397 13.5927 10.9399 13.0622C10.9402 12.5318 11.1512 12.0232 11.5264 11.6483C11.9017 11.2734 12.4105 11.063 12.9409 11.0632C13.4714 11.0635 13.98 11.2745 14.3549 11.6497C14.7297 12.025 14.9402 12.5338 14.9399 13.0642ZM14.9999 16.5442H10.9999V29.0642H14.9999V16.5442ZM21.3199 16.5442H17.3399V29.0642H21.2799V22.4942C21.2799 18.8342 26.0499 18.4942 26.0499 22.4942V29.0642H29.9999V21.1342C29.9999 14.9642 22.9399 15.1942 21.2799 18.2242L21.3199 16.5442Z" fill="white"/>
<circle cx="20" cy="20.0642" r="19.5" stroke="white"/>
</svg>
