<svg width="40" height="41" viewBox="0 0 40 41" fill="none" xmlns="http://www.w3.org/2000/svg">
<path d="M30.46 14.0642C29.69 14.4142 28.86 14.6442 28 14.7542C28.88 14.2242 29.56 13.3842 29.88 12.3742C29.05 12.8742 28.13 13.2242 27.16 13.4242C26.37 12.5642 25.26 12.0642 24 12.0642C21.65 12.0642 19.73 13.9842 19.73 16.3542C19.73 16.6942 19.77 17.0242 19.84 17.3342C16.28 17.1542 13.11 15.4442 11 12.8542C10.63 13.4842 10.42 14.2242 10.42 15.0042C10.42 16.4942 11.17 17.8142 12.33 18.5642C11.62 18.5642 10.96 18.3642 10.38 18.0642V18.0942C10.38 20.1742 11.86 21.9142 13.82 22.3042C13.1908 22.4764 12.5301 22.5004 11.89 22.3742C12.1616 23.2267 12.6936 23.9726 13.4111 24.5071C14.1285 25.0417 14.9955 25.3379 15.89 25.3542C14.3737 26.5546 12.494 27.2035 10.56 27.1942C10.22 27.1942 9.88004 27.1742 9.54004 27.1342C11.44 28.3542 13.7 29.0642 16.12 29.0642C24 29.0642 28.33 22.5242 28.33 16.8542C28.33 16.6642 28.33 16.4842 28.32 16.2942C29.16 15.6942 29.88 14.9342 30.46 14.0642Z" fill="white"/>
<circle cx="20" cy="20.0642" r="19.5" stroke="white"/>
</svg>
